# File created by Blade
# Date/Time:  Wed Apr 08 14:47:20 2015
# Frame Rate: 120.000 fps
#------------------------------------------------------
:FULLY-SPECIFIED
:DEGREES
4219
root 4.077601 32.149504 11.866391 18.075823 -9.801729 -3.394894
Spine -14.595045 12.693506 -8.243670
Head -1.731765 -13.903868 9.433416
LeftShoulder -21.138762 47.385204 4.458495
LeftArm 51.460936 12.185458 -71.508416
LeftForeArm 9.422006 0.000000 103.878733
LeftHand 6.390828 -0.000000 2.222315
LeftHandThumb1 -26.253704 0.000000 33.147579
RightShoulder 0.634101 -1.864468 -19.650027
RightArm 29.942865 -43.162859 74.216001
RightForeArm -4.539603 -0.000000 103.755419
RightHand 5.182862 -0.000000 14.083356
RightHandThumb1 -24.326973 -0.000000 -32.862282
LeftUpLeg -36.477369 14.773731 -11.728517
LeftLeg 25.206952 -0.000000 -0.000000
LeftFoot -19.126428 27.626456 -20.757433
LeftToeBase -5.471614 -0.000000 0.000000
RightUpLeg -3.610789 -11.013425 1.269943
RightLeg 33.243425 -0.000000 -0.000000
RightFoot 28.061079 -14.934527 4.342617
RightToeBase -44.013048 -0.000000 0.000000
4220
root 4.059907 32.125009 11.727609 18.310946 -10.595612 -3.621721
Spine -14.596985 12.845332 -8.181951
Head -1.845217 -13.464135 9.512882
LeftShoulder -21.296089 47.531713 4.353720
LeftArm 51.105835 11.819388 -71.725764
LeftForeArm 9.342229 -0.000000 103.912716
LeftHand 6.397216 -0.000000 2.189601
LeftHandThumb1 -26.253704 0.000000 33.147579
RightShoulder 0.613199 -1.802448 -19.540605
RightArm 30.272517 -43.219816 73.966417
RightForeArm -4.619306 0.000000 103.711189
RightHand 5.243616 -0.000000 13.961013
RightHandThumb1 -24.326973 -0.000000 -32.862282
LeftUpLeg -37.187107 15.029267 -11.628440
LeftLeg 25.615682 -0.000000 -0.000000
LeftFoot -19.266156 28.171226 -20.829297
LeftToeBase -5.490290 -0.000000 0.000000
RightUpLeg -3.297604 -10.399710 1.408736
RightLeg 32.402112 -0.000000 -0.000000
RightFoot 26.952163 -14.725526 3.606629
RightToeBase -44.431152 -0.000000 0.000000
4221
root 4.041350 32.099030 11.588207 18.497453 -11.347952 -3.845764
Spine -14.544446 13.017611 -8.111663
Head -1.918030 -13.051235 9.571732
LeftShoulder -21.342348 47.733760 4.299262
LeftArm 50.793114 11.436284 -71.910871
LeftForeArm 9.359846 -0.000000 103.962898
LeftHand 6.283028 0.000000 2.260093
LeftHandThumb1 -26.253704 0.000000 33.147579
RightShoulder 0.551302 -1.761196 -19.436582
RightArm 30.573049 -43.253761 73.738341
RightForeArm -4.731992 -0.000000 103.681640
RightHand 5.274522 -0.000000 13.895132
RightHandThumb1 -24.326973 -0.000000 -32.862282
LeftUpLeg -37.829639 15.240408 -11.486679
LeftLeg 26.016223 -0.000000 -0.000000
LeftFoot -19.414999 28.723677 -20.917667
LeftToeBase -5.444285 -0.000000 0.000000
RightUpLeg -2.941123 -9.835305 1.541534
RightLeg 31.525207 -0.000000 -0.000000
RightFoot 25.854755 -14.645903 3.157026
RightToeBase -45.286112 -0.000000 0.000000
4222
root 4.018852 32.072487 11.448856 18.639616 -12.078249 -4.054149
Spine -14.447481 13.128953 -8.060421
Head -1.976055 -12.601678 9.680721
LeftShoulder -21.416566 47.944858 4.243608
LeftArm 50.494601 11.027001 -72.105417
LeftForeArm 9.427835 -0.000000 103.994990
LeftHand 6.284643 -0.000000 1.957860
LeftHandThumb1 -26.253704 0.000000 33.147579
RightShoulder 0.551732 -1.684214 -19.336033
RightArm 30.781532 -43.272877 73.615871
RightForeArm -4.748377 0.000000 103.649867
RightHand 5.269164 -0.000000 13.870503
RightHandThumb1 -24.326973 -0.000000 -32.862282
LeftUpLeg -38.416183 15.497972 -11.356904
LeftLeg 26.394460 -0.000000 -0.000000
LeftFoot -19.547289 29.220701 -20.993680
LeftToeBase -5.380581 -0.000000 0.000000
RightUpLeg -2.515241 -9.262931 1.671093
RightLeg 30.537591 -0.000000 -0.000000
RightFoot 24.824212 -14.682109 3.123196
RightToeBase -46.797912 -0.000000 0.000000
4223
root 3.992417 32.045101 11.311630 18.760010 -12.800039 -4.278323
Spine -14.312551 13.197462 -7.990645
Head -2.023566 -12.098260 9.749573
LeftShoulder -21.578172 48.141440 4.115614
LeftArm 50.201472 10.609773 -72.264716
LeftForeArm 9.662951 -0.000000 104.028238
LeftHand 6.351881 0.000000 1.716044
LeftHandThumb1 -26.253704 0.000000 33.147579
RightShoulder 0.550584 -1.581430 -19.209034
RightArm 30.941109 -43.311609 73.520341
RightForeArm -4.864618 0.000000 103.598791
RightHand 5.420658 -0.000000 13.923414
RightHandThumb1 -24.326973 -0.000000 -32.862282
LeftUpLeg -38.956888 15.779576 -11.198336
LeftLeg 26.763269 -0.000000 -0.000000
LeftFoot -19.740651 29.657166 -21.137784
LeftToeBase -5.329997 -0.000000 0.000000
RightUpLeg -2.031898 -8.707521 1.813277
RightLeg 29.442222 -0.000000 -0.000000
RightFoot 23.881188 -14.824568 3.226380
RightToeBase -48.242670 -0.000000 0.000000
4224
root 3.962564 32.017594 11.174511 18.870640 -13.459552 -4.552681
Spine -14.152416 13.248140 -7.855357
Head -2.078486 -11.608126 9.852239
LeftShoulder -21.775070 48.308540 3.965910
LeftArm 49.973802 10.273944 -72.308172
LeftForeArm 9.602919 0.000000 103.987123
LeftHand 6.570931 -0.000000 1.442553
LeftHandThumb1 -26.253704 0.000000 33.147579
RightShoulder 0.553138 -1.560430 -19.097339
RightArm 31.165202 -43.339723 73.388196
RightForeArm -4.872724 -0.000000 103.596147
RightHand 5.352246 -0.000000 13.923410
RightHandThumb1 -24.326973 -0.000000 -32.862282
LeftUpLeg -39.480809 16.085192 -10.984619
LeftLeg 27.170630 -0.000000 -0.000000
LeftFoot -19.982229 29.998194 -21.304260
LeftToeBase -5.179827 -0.000000 0.000000
RightUpLeg -1.464985 -8.115019 2.032520
RightLeg 28.184053 -0.000000 -0.000000
RightFoot 23.093819 -14.954543 3.154239
RightToeBase -50.250179 -0.000000 0.000000
4225
root 3.936920 31.989016 11.037326 19.002702 -14.079804 -4.806594
Spine -14.023851 13.318139 -7.750271
Head -2.134069 -11.234144 9.974951
LeftShoulder -21.872008 48.459911 3.890132
LeftArm 49.717967 9.881681 -72.457088
LeftForeArm 10.000255 -0.000000 103.957646
LeftHand 6.613469 -0.000000 1.306778
LeftHandThumb1 -26.253704 0.000000 33.147579
RightShoulder 0.452749 -1.498476 -19.001328
RightArm 31.285939 -43.416950 73.353725
RightForeArm -4.887719 -0.000000 103.567877
RightHand 5.381434 -0.000000 13.863260
RightHandThumb1 -24.326973 -0.000000 -32.862282
LeftUpLeg -40.013015 16.357617 -10.789526
LeftLeg 27.575434 -0.000000 -0.000000
LeftFoot -20.245960 30.266350 -21.503656
LeftToeBase -5.079805 -0.000000 0.000000
RightUpLeg -0.910082 -7.509238 2.237890
RightLeg 26.902857 -0.000000 -0.000000
RightFoot 22.180826 -15.109385 3.202157
RightToeBase -51.773010 -0.000000 0.000000
4226
root 3.908372 31.960471 10.895229 19.158422 -14.723855 -5.084009
Spine -13.916646 13.415067 -7.648861
Head -2.144243 -10.871060 10.063026
LeftShoulder -21.993062 48.584325 3.816327
LeftArm 49.510250 9.556266 -72.516154
LeftForeArm 10.070016 -0.000000 103.897154
LeftHand 6.559306 -0.000000 1.318719
LeftHandThumb1 -26.253704 0.000000 33.147579
RightShoulder 0.402756 -1.516120 -18.912261
RightArm 31.422458 -43.439613 73.328054
RightForeArm -4.918150 -0.000000 103.588075
RightHand 5.314235 0.000000 13.842071
RightHandThumb1 -24.326973 -0.000000 -32.862282
LeftUpLeg -40.591927 16.701063 -10.598311
LeftLeg 28.021987 -0.000000 -0.000000
LeftFoot -20.536097 30.469574 -21.778902
LeftToeBase -4.885247 -0.000000 0.000000
RightUpLeg -0.410512 -6.777712 2.481924
RightLeg 25.727711 -0.000000 -0.000000
RightFoot 21.065408 -15.281538 3.006629
RightToeBase -52.288825 -0.000000 0.000000
4227
root 3.878785 31.929582 10.752610 19.308159 -15.382277 -5.352977
Spine -13.808561 13.504797 -7.560864
Head -2.133296 -10.498213 10.134222
LeftShoulder -22.147265 48.685982 3.712403
LeftArm 49.320695 9.286555 -72.428224
LeftForeArm 9.788587 -0.000000 103.866400
LeftHand 6.315733 -0.000000 1.874162
LeftHandThumb1 -26.253704 0.000000 33.147579
RightShoulder 0.359440 -1.516143 -18.848067
RightArm 31.526165 -43.486043 73.341408
RightForeArm -4.943394 -0.000000 103.600480
RightHand 5.299444 -0.000000 13.791366
RightHandThumb1 -24.326973 -0.000000 -32.862282
LeftUpLeg -41.187377 17.114456 -10.438181
LeftLeg 28.506364 -0.000000 -0.000000
LeftFoot -20.743422 30.625753 -21.990543
LeftToeBase -4.790528 -0.000000 0.000000
RightUpLeg 0.070469 -5.969865 2.719033
RightLeg 24.663775 -0.000000 -0.000000
RightFoot 19.714712 -15.432680 2.798464
RightToeBase -51.893719 -0.000000 0.000000
4228
root 3.861353 31.897921 10.596068 19.501537 -16.096579 -5.633669
Spine -13.698396 13.674566 -7.438153
Head -2.144095 -10.108885 10.076539
LeftShoulder -22.227210 48.768095 3.631109
LeftArm 49.123211 8.958882 -72.549909
LeftForeArm 9.844981 -0.000000 103.804654
LeftHand 6.285676 -0.000000 1.889681
LeftHandThumb1 -26.253704 0.000000 33.147579
RightShoulder 0.312027 -1.464547 -18.878004
RightArm 31.526046 -43.503042 73.496772
RightForeArm -4.982400 -0.000000 103.584329
RightHand 5.324106 0.000000 13.836959
RightHandThumb1 -24.326973 -0.000000 -32.862282
LeftUpLeg -41.876604 17.548027 -10.307079
LeftLeg 29.032467 -0.000000 -0.000000
LeftFoot -20.930507 30.800709 -22.258983
LeftToeBase -4.705946 -0.000000 0.000000
RightUpLeg 0.381192 -5.121268 2.922172
RightLeg 23.846840 -0.000000 -0.000000
RightFoot 18.281507 -15.432838 2.543815
RightToeBase -51.216683 -0.000000 0.000000
4229
root 3.837985 31.863893 10.448377 19.696970 -16.729060 -5.874247
Spine -13.652141 13.776265 -7.383968
Head -2.059783 -9.755920 10.071671
LeftShoulder -22.281798 48.837341 3.610804
LeftArm 48.905520 8.668490 -72.570006
LeftForeArm 9.924806 0.000000 103.753938
LeftHand 6.358277 0.000000 2.030030
LeftHandThumb1 -26.253704 0.000000 33.147579
RightShoulder 0.275544 -1.501988 -18.881864
RightArm 31.503458 -43.535447 73.630117
RightForeArm -5.000899 -0.000000 103.627867
RightHand 5.256138 -0.000000 13.637002
RightHandThumb1 -24.326973 -0.000000 -32.862282
LeftUpLeg -42.580284 17.957529 -10.204171
LeftLeg 29.598654 -0.000000 -0.000000
LeftFoot -21.082822 30.912387 -22.507705
LeftToeBase -4.729132 -0.000000 0.000000
RightUpLeg 0.705000 -4.344496 3.115815
RightLeg 23.025950 -0.000000 -0.000000
RightFoot 16.877636 -15.577231 2.599697
RightToeBase -50.282552 -0.000000 0.000000
